<?xml version="1.0" standalone="no"?>
<!DOCTYPE svg PUBLIC "-//W3C//DTD SVG 20010904//EN"
 "http://www.w3.org/TR/2001/REC-SVG-20010904/DTD/svg10.dtd">
<svg version="1.0" xmlns="http://www.w3.org/2000/svg"
 width="800.000000pt" height="800.000000pt" viewBox="0 0 800.000000 800.000000"
 preserveAspectRatio="xMidYMid meet">
<metadata>
Created by potrace 1.11, written by Peter Selinger 2001-2013
</metadata>
<g transform="translate(0.000000,800.000000) scale(0.100000,-0.100000)"
fill="#000000" stroke="none">
<path d="M3778 7745 c-1 -1 -46 -6 -98 -10 -52 -4 -97 -8 -100 -10 -3 -1 -36
-6 -73 -10 -37 -3 -78 -8 -90 -11 -12 -2 -38 -7 -57 -10 -236 -37 -604 -143
-793 -228 -17 -8 -61 -27 -97 -42 -73 -31 -327 -160 -350 -178 -8 -6 -31 -20
-50 -30 -125 -69 -355 -235 -521 -378 -99 -84 -284 -266 -354 -348 -109 -128
-141 -167 -217 -270 -91 -124 -186 -269 -238 -365 -141 -261 -224 -446 -295
-661 -39 -117 -70 -225 -80 -274 -2 -8 -8 -33 -13 -55 -19 -70 -57 -281 -67
-365 -3 -30 -8 -62 -10 -70 -19 -74 -27 -585 -11 -750 10 -109 44 -351 58
-410 5 -25 12 -58 15 -75 9 -51 63 -254 95 -354 77 -241 216 -545 356 -778 72
-120 208 -318 264 -385 13 -15 60 -71 106 -125 210 -250 513 -515 792 -694
153 -98 141 -91 256 -154 236 -129 468 -224 769 -315 93 -28 338 -81 440 -95
22 -3 72 -9 110 -15 39 -5 90 -12 115 -15 81 -10 563 -13 655 -4 50 4 117 11
150 14 33 3 112 15 175 26 63 12 129 23 145 26 63 10 236 56 375 100 966 303
1791 1013 2222 1913 57 117 138 307 138 321 0 6 24 82 54 169 144 419 203 804
193 1255 -14 563 -134 1061 -377 1560 -186 383 -414 700 -724 1010 -200 200
-450 400 -651 522 -407 247 -821 411 -1255 497 -175 35 -215 41 -330 51 -41 4
-84 9 -95 12 -23 5 -531 13 -537 8z"/>
</g>
</svg>
